<svg width="42" height="50" viewBox="0 0 42 50" fill="none" xmlns="http://www.w3.org/2000/svg">
<g clip-path="url(#clip0)">
<path fill-rule="evenodd" clip-rule="evenodd" d="M18.5108 2.2244C25.1403 -1.99881 34.3099 -0.0300609 38.9528 6.6128V6.64851C40.0546 8.19107 40.8373 9.93807 41.2551 11.7871C41.6729 13.6361 41.7173 15.5499 41.3858 17.4164C41.0619 19.1977 40.3816 20.8953 39.3858 22.4074C40.8404 25.1796 41.3289 28.3576 40.7742 31.4387C40.4414 33.2638 39.7331 34.9999 38.6941 36.5369C37.6551 38.0739 36.3081 39.3782 34.7385 40.3673L23.0956 47.7557C16.4662 51.9789 7.29652 50.0101 2.65367 43.3673C1.55102 41.8251 0.767761 40.0782 0.349936 38.229C-0.0678884 36.3798 -0.111851 34.4658 0.220631 32.5994C0.540966 30.8177 1.21987 29.1197 2.21617 27.6083C0.762483 24.8343 0.275481 21.6546 0.832239 18.5726C1.16228 16.7465 1.86951 15.0093 2.90877 13.472C3.94802 11.9346 5.29645 10.6309 6.86795 9.64405L18.5108 2.2244ZM11.8291 43.7289C13.6046 44.3876 15.5394 44.4857 17.3724 44.0101C18.2092 43.7851 19.007 43.4344 19.7385 42.9699L31.3858 35.5503C32.332 34.9548 33.1436 34.1683 33.7685 33.2412C34.3935 32.3142 34.8181 31.2669 35.0153 30.1664C35.2148 29.0443 35.1881 27.8936 34.9367 26.7819C34.6852 25.6703 34.2141 24.6201 33.551 23.6932C32.4726 22.1374 30.9426 20.9504 29.1677 20.2925C27.3928 19.6346 25.4587 19.5376 23.6269 20.0146C22.7888 20.2358 21.9904 20.5868 21.2608 21.0548L16.7965 23.8851C16.5749 24.0236 16.3343 24.1288 16.0822 24.1976C15.5335 24.336 14.9556 24.3043 14.4254 24.1065C13.8951 23.9088 13.4376 23.5544 13.1135 23.0905C12.9136 22.8102 12.7712 22.4931 12.6946 22.1575C12.618 21.8218 12.6086 21.4744 12.6671 21.1351C12.7274 20.804 12.8557 20.4891 13.044 20.2102C13.2323 19.9312 13.4763 19.6944 13.7608 19.5146L25.4081 12.1083C25.6288 11.9682 25.8697 11.8628 26.1224 11.7958C26.6686 11.6521 27.2457 11.678 27.7768 11.8702C28.3079 12.0624 28.7679 12.4117 29.0956 12.8717C29.4528 13.3752 29.6204 13.9887 29.5688 14.6039L29.5287 15.0503L29.9751 15.1798C31.611 15.6751 33.1508 16.445 34.5287 17.4565L35.1224 17.903L35.3456 17.2333C35.4604 16.878 35.5528 16.5155 35.6224 16.1485C35.8225 15.0264 35.796 13.8756 35.5445 12.7639C35.2931 11.6522 34.8217 10.602 34.1581 9.6753C33.08 8.11922 31.5501 6.93161 29.7753 6.27295C28.0005 5.61428 26.0663 5.51631 24.234 5.99226C23.4034 6.21675 22.6117 6.56596 21.8858 7.02798L10.2251 14.4476C9.27886 15.0432 8.46732 15.8296 7.84236 16.7567C7.2174 17.6837 6.79277 18.731 6.59563 19.8315C6.39421 20.9528 6.41879 22.1029 6.66794 23.2145C6.91709 24.3261 7.38579 25.3768 8.04653 26.3048C9.12482 27.857 10.6527 29.0416 12.4246 29.6993C14.1965 30.357 16.1273 30.4561 17.9572 29.9833C18.7921 29.7601 19.5889 29.4106 20.3188 28.9476L24.7831 26.1128C25.0038 25.9727 25.2447 25.8673 25.4974 25.8003C26.0494 25.6571 26.632 25.6864 27.1667 25.8844C27.7015 26.0823 28.1628 26.4394 28.4885 26.9074C28.6893 27.1864 28.8322 27.5027 28.9089 27.8378C28.9855 28.1728 28.9944 28.5198 28.9349 28.8583C28.876 29.1905 28.7483 29.5067 28.5599 29.7865C28.3716 30.0664 28.1267 30.3037 27.8412 30.4833L16.2162 37.903C15.995 38.0423 15.7543 38.1476 15.5019 38.2155C14.9499 38.3587 14.3673 38.3294 13.8326 38.1314C13.2978 37.9335 12.8365 37.5764 12.5108 37.1083C12.1534 36.6096 11.9812 36.0017 12.0242 35.3896L12.0644 34.9432L11.618 34.8137C9.98789 34.3224 8.4528 33.5586 7.07778 32.5548L6.47956 32.1083L6.26081 32.778C6.14242 33.1294 6.04991 33.489 5.98403 33.8539C5.78336 34.9757 5.80914 36.1263 6.05985 37.238C6.31056 38.3497 6.78112 39.4 7.44385 40.3271C8.52311 41.883 10.0537 43.0703 11.8291 43.7289Z" fill="#2E3140"/>
</g>
<defs>
<clipPath id="clip0">
<rect width="41.9643" height="50" fill="white"/>
</clipPath>
</defs>
</svg>
