<svg width="60" height="61" viewBox="0 0 60 61" fill="none" xmlns="http://www.w3.org/2000/svg">
<path fill-rule="evenodd" clip-rule="evenodd" d="M55.7847 20.5317V40.0497L55.7813 40.0495V42.3389C55.7813 45.0433 54.3153 47.5354 51.949 48.8526C46.9607 51.6272 38.3016 56.4422 33.4124 59.162C31.1597 60.4147 28.4113 60.3866 26.1857 59.0871L9.44307 49.3144C6.69154 47.7082 5 44.7647 5 41.5814V21.5977C5 18.3887 6.66599 15.4097 9.40154 13.7253C13.9373 10.9319 20.964 6.6054 25.4679 3.83228C28.1203 2.19908 31.4587 2.16362 34.1464 3.73971C39.235 6.72549 47.544 11.6004 52.2471 14.3597C54.4384 15.6454 55.7847 17.9936 55.7847 20.5317ZM19.2855 16.715V45.7056H25.3508V33.0296H35.4121V45.7056H41.495V16.715H35.4121V27.2749H25.3508V16.715H19.2855Z" fill="#373C4A"/>
</svg>
