<?xml version="1.0" encoding="utf-8"?>
<!-- Generator: Adobe Illustrator 25.4.1, SVG Export Plug-In . SVG Version: 6.00 Build 0)  -->
<svg version="1.1" id="Layer_1" xmlns="http://www.w3.org/2000/svg" xmlns:xlink="http://www.w3.org/1999/xlink" x="0px" y="0px"
	 viewBox="0 0 50 50" style="enable-background:new 0 0 50 50;" xml:space="preserve">
<style type="text/css">
	.st0{fill:#464342;}
</style>
<g>
	<g>
		<path class="st0" d="M3.5,25c0,8.5,4.9,15.8,12.1,19.3l-10.2-28C4.2,19,3.5,21.9,3.5,25z"/>
		<path class="st0" d="M39.5,23.9c0-2.7-1-4.5-1.8-5.9c-1.1-1.8-2.1-3.3-2.1-5c0-2,1.5-3.8,3.6-3.8c0.1,0,0.2,0,0.3,0
			C35.7,5.7,30.6,3.6,25,3.6c-7.5,0-14.1,3.8-17.9,9.7c0.5,0,1,0,1.4,0c2.2,0,5.7-0.3,5.7-0.3c1.2-0.1,1.3,1.6,0.1,1.8
			c0,0-1.2,0.1-2.5,0.2l7.8,23.2l4.7-14.1L21,14.9c-1.2-0.1-2.2-0.2-2.2-0.2c-1.2-0.1-1-1.8,0.1-1.8c0,0,3.5,0.3,5.6,0.3
			c2.2,0,5.7-0.3,5.7-0.3c1.2-0.1,1.3,1.6,0.1,1.8c0,0-1.2,0.1-2.5,0.2L35.6,38l2.1-7.1C38.7,27.9,39.5,25.8,39.5,23.9z"/>
		<path class="st0" d="M25.3,26.9l-6.4,18.7c1.9,0.6,4,0.9,6.1,0.9c2.5,0,4.9-0.4,7.1-1.2C32,45.2,32,45.1,31.9,45L25.3,26.9z"/>
		<path class="st0" d="M43.8,14.7c0.1,0.7,0.1,1.4,0.1,2.2c0,2.2-0.4,4.6-1.6,7.7l-6.6,18.9c6.4-3.7,10.7-10.6,10.7-18.5
			C46.4,21.3,45.5,17.8,43.8,14.7z"/>
		<path class="st0" d="M25,0C11.2,0,0,11.2,0,25s11.2,25,25,25s25-11.2,25-25S38.8,0,25,0z M25,48.9C11.8,48.9,1.1,38.2,1.1,25
			S11.8,1.1,25,1.1S48.9,11.8,48.9,25C48.8,38.2,38.1,48.9,25,48.9z"/>
	</g>
</g>
</svg>
