<svg width="60" height="61" viewBox="0 0 60 61" fill="none" xmlns="http://www.w3.org/2000/svg">
<path d="M29.45 2.58203C14.4516 2.58203 2.5 14.7775 2.5 30.0797C2.5 45.382 14.4516 57.582 29.4477 57.582C44.4439 57.582 56.3977 45.3866 56.3977 30.082C56.3977 14.7775 44.4484 2.58203 29.45 2.58203ZM8.35782 30.3205L29.2163 51.6047C17.7321 51.6047 8.35782 42.0391 8.35782 30.3205ZM34.1371 51.1255L8.82743 25.2992C10.9328 15.7336 19.3724 8.5594 29.4477 8.5594C32.7791 8.56604 36.0625 9.37025 39.0339 10.9074C42.0053 12.4445 44.5817 14.6716 46.5561 17.4097L43.5114 20.0372C41.9237 17.6661 39.7901 15.7287 37.2978 14.3948C34.8055 13.0608 32.0306 12.3711 29.2163 12.3861C25.6574 12.3628 22.1814 13.4814 19.2795 15.5838C16.3776 17.6863 14.1967 20.6662 13.045 24.1024L35.0741 46.5834C40.4668 44.6689 44.6821 39.8884 45.855 34.1472H36.7144V30.082H50.5422C50.5422 40.3653 43.5114 48.9748 34.1371 51.1255Z" fill="#373C4A"/>
</svg>
