<svg width="60" height="61" viewBox="0 0 60 61" fill="none" xmlns="http://www.w3.org/2000/svg">
<path fill-rule="evenodd" clip-rule="evenodd" d="M18.4578 51.5324L18.3073 51.3818C18.0062 50.7798 18.0062 50.1777 18.0062 49.5757H3.70735L25.0804 11.6459L33.9608 27.751L36.8206 25.6438L27.9402 9.53872C27.7897 9.23769 26.7361 7.58203 24.9299 7.58203C24.1774 7.58203 22.9732 7.88306 22.0701 9.53872L0.546532 47.92C0.396017 48.221 -0.507073 50.0272 0.396017 51.5324C0.697047 52.2849 1.60014 53.0375 3.55683 53.0375H21.6186C19.6619 53.0375 18.7588 52.2849 18.4578 51.5324Z" fill="#373C4A"/>
<path fill-rule="evenodd" clip-rule="evenodd" d="M59.3979 48.0705L42.0887 16.914C41.7877 16.6129 40.8846 14.9573 39.0784 14.9573C38.3258 14.9573 37.2722 15.2583 36.2186 16.914L33.9609 20.5263V27.751L39.0784 18.8707L56.2371 49.5757H49.765C49.8547 50.1945 49.7495 50.8257 49.4639 51.3819V51.5324C48.5608 53.0375 46.6042 53.0375 46.3031 53.0375H56.5381C56.8392 53.0375 58.7959 53.0375 59.6989 51.5324C60 50.7798 60.301 49.5757 59.3979 48.0705Z" fill="#373C4A"/>
<path d="M50.1197 51.8004V51.6498L50.2702 51.3488C50.4207 50.8973 50.5713 50.2952 50.4207 49.8437L49.8187 48.188L36.2723 24.4067L34.3156 20.7943H34.1651L32.2084 24.4067L18.5116 48.188L18.06 49.8437C17.9482 50.5114 18.0539 51.1973 18.3611 51.8004C18.8126 52.5529 19.7157 53.3055 21.5219 53.3055H46.8084C47.2599 53.3055 49.2166 53.3055 50.1197 51.8004ZM34.1651 28.019L46.6579 49.8437H21.8229L34.1651 28.019Z" fill="#373C4A"/>
</svg>
