<svg width="55" height="50" viewBox="0 0 55 50" fill="none" xmlns="http://www.w3.org/2000/svg">
<path d="M27.2717 29.1069C28.5074 29.1069 29.6925 28.616 30.5662 27.7423C31.44 26.8685 31.9308 25.6835 31.9308 24.4478C31.9308 23.2121 31.44 22.0271 30.5662 21.1533C29.6925 20.2796 28.5074 19.7887 27.2717 19.7887C26.0361 19.7887 24.851 20.2796 23.9773 21.1533C23.1035 22.0271 22.6126 23.2121 22.6126 24.4478C22.6126 25.6835 23.1035 26.8685 23.9773 27.7423C24.851 28.616 26.0361 29.1069 27.2717 29.1069V29.1069Z" stroke="#2E3140" stroke-width="2"/>
<path d="M27.2727 33.9928C41.0795 33.9928 52.2727 29.72 52.2727 24.4473C52.2727 19.1746 41.0795 14.9019 27.2727 14.9019C13.4659 14.9019 2.27273 19.1746 2.27273 24.4473C2.27273 29.72 13.4659 33.9928 27.2727 33.9928Z" stroke="#2E3140" stroke-width="2"/>
<path d="M19.0056 29.2202C25.9079 41.1771 35.2056 48.7339 39.7715 46.0975C44.3374 43.4611 42.442 31.6316 35.5374 19.6748C28.6352 7.71796 19.3397 0.16114 14.7715 2.7975C10.2056 5.43159 12.1011 17.2634 19.0056 29.2202Z" stroke="#2E3140" stroke-width="2"/>
<path d="M19.0062 19.6752C12.1016 31.632 10.2039 43.4639 14.7721 46.0979C19.338 48.7343 28.6357 41.1775 35.538 29.2207C42.4425 17.2639 44.3403 5.43431 39.7721 2.79795C35.2062 0.15931 25.9084 7.7184 19.0062 19.6752Z" stroke="#2E3140" stroke-width="2"/>
</svg>
