<svg width="50" height="50" viewBox="0 0 50 50" fill="none" xmlns="http://www.w3.org/2000/svg">
<g clip-path="url(#clip0)">
<path d="M23.3625 0.0135468C23.2552 0.0239635 22.9135 0.0572968 22.6052 0.0822968C15.5031 0.72188 8.85104 4.55209 4.63854 10.4417C2.30941 13.6742 0.795321 17.4214 0.225 21.3646C0.0239583 22.7375 0 23.1427 0 25.0052C0 26.8667 0.0239583 27.2729 0.225 28.6458C1.58333 38.0333 8.26458 45.9208 17.326 48.8438C18.949 49.3656 20.6594 49.7229 22.6052 49.9375C23.3625 50.0208 26.6365 50.0208 27.3948 49.9375C30.7531 49.5667 33.5969 48.7354 36.4031 47.3031C36.8323 47.0844 36.9156 47.025 36.8573 46.976C36.8177 46.9469 34.9854 44.4885 32.7854 41.5177L28.7875 36.1177L23.7781 28.7042C21.0219 24.6281 18.7531 21.2958 18.7344 21.2958C18.7146 21.2906 18.6948 24.5844 18.6854 28.6063C18.6708 35.6479 18.6656 35.9323 18.5781 36.0979C18.451 36.3375 18.3531 36.4354 18.1479 36.5427C17.9917 36.6208 17.8542 36.6365 17.1167 36.6365H16.2708L16.0458 36.4938C15.9068 36.4065 15.7938 36.2835 15.7188 36.1375L15.6156 35.9177L15.626 26.1188L15.6406 16.3167L15.7917 16.125C15.8698 16.0229 16.0365 15.8906 16.1531 15.8271C16.3542 15.7292 16.4323 15.7198 17.2781 15.7198C18.275 15.7198 18.4406 15.7594 18.7 16.0427C18.7729 16.1208 21.4854 20.2063 24.7312 25.1271C27.9771 30.0479 32.4146 36.7677 34.5948 40.0667L38.5531 46.0625L38.7531 45.9302C40.5281 44.7771 42.4042 43.1354 43.8906 41.425C47.0409 37.8201 49.0844 33.383 49.776 28.6458C49.976 27.2719 50 26.8667 50 25.0052C50 23.1427 49.976 22.7375 49.775 21.3646C48.4167 11.976 41.7354 4.08959 32.674 1.16667C31.075 0.648963 29.374 0.291672 27.4677 0.0770885C26.999 0.0281301 23.7687 -0.0260365 23.3635 0.0135468H23.3625ZM33.5969 15.1333C33.7132 15.1921 33.8168 15.2734 33.9015 15.3725C33.9863 15.4715 34.0505 15.5864 34.0906 15.7104C34.1302 15.8375 34.1396 18.5542 34.1302 24.6771L34.1156 33.4646L32.5656 31.0896L31.0115 28.7146V22.3271C31.0115 18.1979 31.0312 15.876 31.0604 15.7646C31.0953 15.6344 31.1562 15.5126 31.2394 15.4066C31.3227 15.3006 31.4266 15.2126 31.5448 15.1479C31.7448 15.0458 31.8177 15.0354 32.5865 15.0354C33.3094 15.0354 33.4365 15.0458 33.5969 15.1333Z" fill="#2E3140"/>
</g>
<defs>
<clipPath id="clip0">
<rect width="50" height="50" fill="white"/>
</clipPath>
</defs>
</svg>
